<svg width="126" height="173" viewBox="0 0 126 173" fill="none" xmlns="http://www.w3.org/2000/svg">
<mask id="path-1-inside-1_162_1064" fill="white">
<path d="M0 17H126V157H0V17Z"/>
</mask>
<path d="M124 17V157H128V17H124ZM2 157V17H-2V157H2Z" fill="#B490EA" mask="url(#path-1-inside-1_162_1064)"/>
<path d="M125 16.5C125 18.2291 123.645 20.1392 120.523 22.0723C117.455 23.9717 112.95 25.7186 107.294 27.1999C95.9978 30.1585 80.337 32 63 32C45.663 32 30.0022 30.1585 18.7056 27.1999C13.0499 25.7186 8.54475 23.9717 5.47731 22.0723C2.35539 20.1392 1 18.2291 1 16.5C1 14.7709 2.35539 12.8608 5.47731 10.9277C8.54475 9.02826 13.0499 7.28137 18.7056 5.80011C30.0022 2.84149 45.663 1 63 1C80.337 1 95.9978 2.84149 107.294 5.80011C112.95 7.28137 117.455 9.02826 120.523 10.9277C123.645 12.8608 125 14.7709 125 16.5Z" stroke="#B490EA" stroke-width="2"/>
<mask id="mask0_162_1064" style="mask-type:alpha" maskUnits="userSpaceOnUse" x="0" y="157" width="126" height="16">
<rect width="126" height="16" transform="matrix(1 0 0 -1 0 173)" fill="#D9D9D9"/>
</mask>
<g mask="url(#mask0_162_1064)">
<path d="M125 156.5C125 158.229 123.645 160.139 120.523 162.072C117.455 163.972 112.95 165.719 107.294 167.2C95.9978 170.159 80.337 172 63 172C45.663 172 30.0022 170.159 18.7056 167.2C13.0499 165.719 8.54475 163.972 5.47731 162.072C2.35539 160.139 1 158.229 1 156.5C1 154.771 2.35539 152.861 5.47731 150.928C8.54475 149.028 13.0499 147.281 18.7056 145.8C30.0022 142.841 45.663 141 63 141C80.337 141 95.9978 142.841 107.294 145.8C112.95 147.281 117.455 149.028 120.523 150.928C123.645 152.861 125 154.771 125 156.5Z" stroke="#B490EA" stroke-width="2"/>
</g>
<mask id="mask1_162_1064" style="mask-type:alpha" maskUnits="userSpaceOnUse" x="0" y="137" width="126" height="16">
<rect width="126" height="16" transform="matrix(1 0 0 -1 0 153)" fill="#D9D9D9"/>
</mask>
<g mask="url(#mask1_162_1064)">
<path d="M125 136.5C125 138.229 123.645 140.139 120.523 142.072C117.455 143.972 112.95 145.719 107.294 147.2C95.9978 150.159 80.337 152 63 152C45.663 152 30.0022 150.159 18.7056 147.2C13.0499 145.719 8.54475 143.972 5.47731 142.072C2.35539 140.139 1 138.229 1 136.5C1 134.771 2.35539 132.861 5.47731 130.928C8.54475 129.028 13.0499 127.281 18.7056 125.8C30.0022 122.841 45.663 121 63 121C80.337 121 95.9978 122.841 107.294 125.8C112.95 127.281 117.455 129.028 120.523 130.928C123.645 132.861 125 134.771 125 136.5Z" stroke="#B490EA" stroke-width="2"/>
</g>
<mask id="mask2_162_1064" style="mask-type:alpha" maskUnits="userSpaceOnUse" x="0" y="117" width="126" height="16">
<rect width="126" height="16" transform="matrix(1 0 0 -1 0 133)" fill="#D9D9D9"/>
</mask>
<g mask="url(#mask2_162_1064)">
<path d="M125 116.5C125 118.229 123.645 120.139 120.523 122.072C117.455 123.972 112.95 125.719 107.294 127.2C95.9978 130.159 80.337 132 63 132C45.663 132 30.0022 130.159 18.7056 127.2C13.0499 125.719 8.54475 123.972 5.47731 122.072C2.35539 120.139 1 118.229 1 116.5C1 114.771 2.35539 112.861 5.47731 110.928C8.54475 109.028 13.0499 107.281 18.7056 105.8C30.0022 102.841 45.663 101 63 101C80.337 101 95.9978 102.841 107.294 105.8C112.95 107.281 117.455 109.028 120.523 110.928C123.645 112.861 125 114.771 125 116.5Z" stroke="#B490EA" stroke-width="2"/>
</g>
<mask id="mask3_162_1064" style="mask-type:alpha" maskUnits="userSpaceOnUse" x="0" y="97" width="126" height="16">
<rect width="126" height="16" transform="matrix(1 0 0 -1 0 113)" fill="#D9D9D9"/>
</mask>
<g mask="url(#mask3_162_1064)">
<path d="M125 96.5C125 98.2291 123.645 100.139 120.523 102.072C117.455 103.972 112.95 105.719 107.294 107.2C95.9978 110.159 80.337 112 63 112C45.663 112 30.0022 110.159 18.7056 107.2C13.0499 105.719 8.54475 103.972 5.47731 102.072C2.35539 100.139 1 98.2291 1 96.5C1 94.7709 2.35539 92.8608 5.47731 90.9277C8.54475 89.0283 13.0499 87.2814 18.7056 85.8001C30.0022 82.8415 45.663 81 63 81C80.337 81 95.9978 82.8415 107.294 85.8001C112.95 87.2814 117.455 89.0283 120.523 90.9277C123.645 92.8608 125 94.7709 125 96.5Z" stroke="#B490EA" stroke-width="2"/>
</g>
<mask id="mask4_162_1064" style="mask-type:alpha" maskUnits="userSpaceOnUse" x="0" y="77" width="126" height="16">
<rect width="126" height="16" transform="matrix(1 0 0 -1 0 93)" fill="#D9D9D9"/>
</mask>
<g mask="url(#mask4_162_1064)">
<path d="M125 76.5C125 78.2291 123.645 80.1392 120.523 82.0723C117.455 83.9717 112.95 85.7186 107.294 87.1999C95.9978 90.1585 80.337 92 63 92C45.663 92 30.0022 90.1585 18.7056 87.1999C13.0499 85.7186 8.54475 83.9717 5.47731 82.0723C2.35539 80.1392 1 78.2291 1 76.5C1 74.7709 2.35539 72.8608 5.47731 70.9277C8.54475 69.0283 13.0499 67.2814 18.7056 65.8001C30.0022 62.8415 45.663 61 63 61C80.337 61 95.9978 62.8415 107.294 65.8001C112.95 67.2814 117.455 69.0283 120.523 70.9277C123.645 72.8608 125 74.7709 125 76.5Z" stroke="#B490EA" stroke-width="2"/>
</g>
<mask id="mask5_162_1064" style="mask-type:alpha" maskUnits="userSpaceOnUse" x="0" y="57" width="126" height="16">
<rect width="126" height="16" transform="matrix(1 0 0 -1 0 73)" fill="#D9D9D9"/>
</mask>
<g mask="url(#mask5_162_1064)">
<path d="M125 56.5C125 58.2291 123.645 60.1392 120.523 62.0723C117.455 63.9717 112.95 65.7186 107.294 67.1999C95.9978 70.1585 80.337 72 63 72C45.663 72 30.0022 70.1585 18.7056 67.1999C13.0499 65.7186 8.54475 63.9717 5.47731 62.0723C2.35539 60.1392 1 58.2291 1 56.5C1 54.7709 2.35539 52.8608 5.47731 50.9277C8.54475 49.0283 13.0499 47.2814 18.7056 45.8001C30.0022 42.8415 45.663 41 63 41C80.337 41 95.9978 42.8415 107.294 45.8001C112.95 47.2814 117.455 49.0283 120.523 50.9277C123.645 52.8608 125 54.7709 125 56.5Z" stroke="#B490EA" stroke-width="2"/>
</g>
<mask id="mask6_162_1064" style="mask-type:alpha" maskUnits="userSpaceOnUse" x="0" y="37" width="126" height="16">
<rect width="126" height="16" transform="matrix(1 0 0 -1 0 53)" fill="#D9D9D9"/>
</mask>
<g mask="url(#mask6_162_1064)">
<path d="M125 36.5C125 38.2291 123.645 40.1392 120.523 42.0723C117.455 43.9717 112.95 45.7186 107.294 47.1999C95.9978 50.1585 80.337 52 63 52C45.663 52 30.0022 50.1585 18.7056 47.1999C13.0499 45.7186 8.54475 43.9717 5.47731 42.0723C2.35539 40.1392 1 38.2291 1 36.5C1 34.7709 2.35539 32.8608 5.47731 30.9277C8.54475 29.0283 13.0499 27.2814 18.7056 25.8001C30.0022 22.8415 45.663 21 63 21C80.337 21 95.9978 22.8415 107.294 25.8001C112.95 27.2814 117.455 29.0283 120.523 30.9277C123.645 32.8608 125 34.7709 125 36.5Z" stroke="#B490EA" stroke-width="2"/>
</g>
</svg>
