<svg width="126" height="33" viewBox="0 0 126 33" fill="none" xmlns="http://www.w3.org/2000/svg">
<ellipse cx="63" cy="16.5" rx="63" ry="16.5" fill="#E199AA" fill-opacity="0.5"/>
<path d="M125 16.5C125 18.2291 123.645 20.1392 120.523 22.0723C117.455 23.9717 112.95 25.7186 107.294 27.1999C95.9978 30.1585 80.337 32 63 32C45.663 32 30.0022 30.1585 18.7056 27.1999C13.0499 25.7186 8.54475 23.9717 5.47731 22.0723C2.35539 20.1392 1 18.2291 1 16.5C1 14.7709 2.35539 12.8608 5.47731 10.9277C8.54475 9.02826 13.0499 7.28137 18.7056 5.80011C30.0022 2.84149 45.663 1 63 1C80.337 1 95.9978 2.84149 107.294 5.80011C112.95 7.28137 117.455 9.02826 120.523 10.9277C123.645 12.8608 125 14.7709 125 16.5Z" stroke="#B490EA" stroke-opacity="0.5" stroke-width="2"/>
<path fill-rule="evenodd" clip-rule="evenodd" d="M63 33C97.7939 33 126 25.6127 126 16.5V33H63ZM0 16.5C0 25.6127 28.2061 33 63 33H0V16.5ZM0.0283732 16C0.00950217 16.1661 0 16.3327 0 16.5V16H0.0283732ZM125.972 16H126V16.5C126 16.3327 125.99 16.1661 125.972 16Z" fill="#E199AA" fill-opacity="0.5"/>
</svg>
